<mxfile host="65bd71144e" modified="2021-03-09T14:10:59.536Z" agent="5.0 (Windows NT 10.0; Win64; x64) AppleWebKit/537.36 (KHTML, like Gecko) Code/1.54.1 Chrome/87.0.4280.141 Electron/11.3.0 Safari/537.36" etag="cBpXgGa0trdPlsiahQEp" version="14.2.4" type="embed">
    <diagram id="ERVyzLTOd8rnQVCN7htM" name="Page-1">
        <mxGraphModel dx="1439" dy="1435" grid="1" gridSize="10" guides="1" tooltips="1" connect="1" arrows="1" fold="1" page="1" pageScale="1" pageWidth="827" pageHeight="1169" math="0" shadow="0">
            <root>
                <mxCell id="0"/>
                <mxCell id="1" parent="0"/>
                <mxCell id="4POE1kAswEFOXkOAvwZu-3" value="" style="edgeStyle=entityRelationEdgeStyle;fontSize=12;html=1;endArrow=ERmany;exitX=0;exitY=0.5;exitDx=0;exitDy=0;entryX=1;entryY=0.5;entryDx=0;entryDy=0;" parent="1" source="3lhs_4WbsQqXkiDwzQcI-35" target="3lhs_4WbsQqXkiDwzQcI-252" edge="1">
                    <mxGeometry width="100" height="100" relative="1" as="geometry">
                        <mxPoint x="380" y="-425" as="sourcePoint"/>
                        <mxPoint x="340" y="-220" as="targetPoint"/>
                    </mxGeometry>
                </mxCell>
                <mxCell id="_opc5yqt9Sbzke906tnC-1" value="Coffees" style="shape=table;startSize=30;container=1;collapsible=1;childLayout=tableLayout;fixedRows=1;rowLines=0;fontStyle=1;align=center;resizeLast=1;" parent="1" vertex="1">
                    <mxGeometry x="-170" y="-240" width="180" height="180" as="geometry"/>
                </mxCell>
                <mxCell id="_opc5yqt9Sbzke906tnC-2" value="" style="shape=partialRectangle;collapsible=0;dropTarget=0;pointerEvents=0;fillColor=none;top=0;left=0;bottom=1;right=0;points=[[0,0.5],[1,0.5]];portConstraint=eastwest;" parent="_opc5yqt9Sbzke906tnC-1" vertex="1">
                    <mxGeometry y="30" width="180" height="30" as="geometry"/>
                </mxCell>
                <mxCell id="_opc5yqt9Sbzke906tnC-3" value="PK" style="shape=partialRectangle;connectable=0;fillColor=none;top=0;left=0;bottom=0;right=0;fontStyle=1;overflow=hidden;" parent="_opc5yqt9Sbzke906tnC-2" vertex="1">
                    <mxGeometry width="30" height="30" as="geometry"/>
                </mxCell>
                <mxCell id="_opc5yqt9Sbzke906tnC-4" value="UniqueID" style="shape=partialRectangle;connectable=0;fillColor=none;top=0;left=0;bottom=0;right=0;align=left;spacingLeft=6;fontStyle=5;overflow=hidden;" parent="_opc5yqt9Sbzke906tnC-2" vertex="1">
                    <mxGeometry x="30" width="150" height="30" as="geometry"/>
                </mxCell>
                <mxCell id="_opc5yqt9Sbzke906tnC-5" value="" style="shape=partialRectangle;collapsible=0;dropTarget=0;pointerEvents=0;fillColor=none;top=0;left=0;bottom=0;right=0;points=[[0,0.5],[1,0.5]];portConstraint=eastwest;" parent="_opc5yqt9Sbzke906tnC-1" vertex="1">
                    <mxGeometry y="60" width="180" height="30" as="geometry"/>
                </mxCell>
                <mxCell id="_opc5yqt9Sbzke906tnC-6" value="" style="shape=partialRectangle;connectable=0;fillColor=none;top=0;left=0;bottom=0;right=0;editable=1;overflow=hidden;" parent="_opc5yqt9Sbzke906tnC-5" vertex="1">
                    <mxGeometry width="30" height="30" as="geometry"/>
                </mxCell>
                <mxCell id="_opc5yqt9Sbzke906tnC-7" value="Row 1" style="shape=partialRectangle;connectable=0;fillColor=none;top=0;left=0;bottom=0;right=0;align=left;spacingLeft=6;overflow=hidden;" parent="_opc5yqt9Sbzke906tnC-5" vertex="1">
                    <mxGeometry x="30" width="150" height="30" as="geometry"/>
                </mxCell>
                <mxCell id="_opc5yqt9Sbzke906tnC-8" value="" style="shape=partialRectangle;collapsible=0;dropTarget=0;pointerEvents=0;fillColor=none;top=0;left=0;bottom=0;right=0;points=[[0,0.5],[1,0.5]];portConstraint=eastwest;" parent="_opc5yqt9Sbzke906tnC-1" vertex="1">
                    <mxGeometry y="90" width="180" height="30" as="geometry"/>
                </mxCell>
                <mxCell id="_opc5yqt9Sbzke906tnC-9" value="" style="shape=partialRectangle;connectable=0;fillColor=none;top=0;left=0;bottom=0;right=0;editable=1;overflow=hidden;" parent="_opc5yqt9Sbzke906tnC-8" vertex="1">
                    <mxGeometry width="30" height="30" as="geometry"/>
                </mxCell>
                <mxCell id="_opc5yqt9Sbzke906tnC-10" value="Row 2" style="shape=partialRectangle;connectable=0;fillColor=none;top=0;left=0;bottom=0;right=0;align=left;spacingLeft=6;overflow=hidden;" parent="_opc5yqt9Sbzke906tnC-8" vertex="1">
                    <mxGeometry x="30" width="150" height="30" as="geometry"/>
                </mxCell>
                <mxCell id="_opc5yqt9Sbzke906tnC-11" value="" style="shape=partialRectangle;collapsible=0;dropTarget=0;pointerEvents=0;fillColor=none;top=0;left=0;bottom=0;right=0;points=[[0,0.5],[1,0.5]];portConstraint=eastwest;" parent="_opc5yqt9Sbzke906tnC-1" vertex="1">
                    <mxGeometry y="120" width="180" height="30" as="geometry"/>
                </mxCell>
                <mxCell id="_opc5yqt9Sbzke906tnC-12" value="" style="shape=partialRectangle;connectable=0;fillColor=none;top=0;left=0;bottom=0;right=0;editable=1;overflow=hidden;" parent="_opc5yqt9Sbzke906tnC-11" vertex="1">
                    <mxGeometry width="30" height="30" as="geometry"/>
                </mxCell>
                <mxCell id="_opc5yqt9Sbzke906tnC-13" value="Row 3" style="shape=partialRectangle;connectable=0;fillColor=none;top=0;left=0;bottom=0;right=0;align=left;spacingLeft=6;overflow=hidden;" parent="_opc5yqt9Sbzke906tnC-11" vertex="1">
                    <mxGeometry x="30" width="150" height="30" as="geometry"/>
                </mxCell>
                <mxCell id="4POE1kAswEFOXkOAvwZu-12" value="" style="shape=partialRectangle;collapsible=0;dropTarget=0;pointerEvents=0;fillColor=none;top=0;left=0;bottom=0;right=0;points=[[0,0.5],[1,0.5]];portConstraint=eastwest;" parent="_opc5yqt9Sbzke906tnC-1" vertex="1">
                    <mxGeometry y="150" width="180" height="30" as="geometry"/>
                </mxCell>
                <mxCell id="4POE1kAswEFOXkOAvwZu-13" value="" style="shape=partialRectangle;connectable=0;fillColor=none;top=0;left=0;bottom=0;right=0;editable=1;overflow=hidden;" parent="4POE1kAswEFOXkOAvwZu-12" vertex="1">
                    <mxGeometry width="30" height="30" as="geometry"/>
                </mxCell>
                <mxCell id="4POE1kAswEFOXkOAvwZu-14" value="price" style="shape=partialRectangle;connectable=0;fillColor=none;top=0;left=0;bottom=0;right=0;align=left;spacingLeft=6;overflow=hidden;" parent="4POE1kAswEFOXkOAvwZu-12" vertex="1">
                    <mxGeometry x="30" width="150" height="30" as="geometry"/>
                </mxCell>
                <mxCell id="_opc5yqt9Sbzke906tnC-22" value="" style="edgeStyle=entityRelationEdgeStyle;fontSize=12;html=1;endArrow=ERzeroToMany;endFill=1;" parent="1" edge="1">
                    <mxGeometry width="100" height="100" relative="1" as="geometry">
                        <mxPoint x="200" y="530" as="sourcePoint"/>
                        <mxPoint x="300" y="430" as="targetPoint"/>
                    </mxGeometry>
                </mxCell>
                <mxCell id="3lhs_4WbsQqXkiDwzQcI-34" value="Weights" style="shape=table;startSize=30;container=1;collapsible=1;childLayout=tableLayout;fixedRows=1;rowLines=0;fontStyle=1;align=center;resizeLast=1;" parent="1" vertex="1">
                    <mxGeometry x="359" y="-180" width="170" height="120" as="geometry"/>
                </mxCell>
                <mxCell id="3lhs_4WbsQqXkiDwzQcI-35" value="" style="shape=partialRectangle;collapsible=0;dropTarget=0;pointerEvents=0;fillColor=none;top=0;left=0;bottom=1;right=0;points=[[0,0.5],[1,0.5]];portConstraint=eastwest;" parent="3lhs_4WbsQqXkiDwzQcI-34" vertex="1">
                    <mxGeometry y="30" width="170" height="30" as="geometry"/>
                </mxCell>
                <mxCell id="3lhs_4WbsQqXkiDwzQcI-36" value="PK" style="shape=partialRectangle;connectable=0;fillColor=none;top=0;left=0;bottom=0;right=0;fontStyle=1;overflow=hidden;" parent="3lhs_4WbsQqXkiDwzQcI-35" vertex="1">
                    <mxGeometry width="30" height="30" as="geometry"/>
                </mxCell>
                <mxCell id="3lhs_4WbsQqXkiDwzQcI-37" value="UniqueID" style="shape=partialRectangle;connectable=0;fillColor=none;top=0;left=0;bottom=0;right=0;align=left;spacingLeft=6;fontStyle=5;overflow=hidden;" parent="3lhs_4WbsQqXkiDwzQcI-35" vertex="1">
                    <mxGeometry x="30" width="140" height="30" as="geometry"/>
                </mxCell>
                <mxCell id="3lhs_4WbsQqXkiDwzQcI-38" value="" style="shape=partialRectangle;collapsible=0;dropTarget=0;pointerEvents=0;fillColor=none;top=0;left=0;bottom=0;right=0;points=[[0,0.5],[1,0.5]];portConstraint=eastwest;" parent="3lhs_4WbsQqXkiDwzQcI-34" vertex="1">
                    <mxGeometry y="60" width="170" height="30" as="geometry"/>
                </mxCell>
                <mxCell id="3lhs_4WbsQqXkiDwzQcI-39" value="" style="shape=partialRectangle;connectable=0;fillColor=none;top=0;left=0;bottom=0;right=0;editable=1;overflow=hidden;" parent="3lhs_4WbsQqXkiDwzQcI-38" vertex="1">
                    <mxGeometry width="30" height="30" as="geometry"/>
                </mxCell>
                <mxCell id="3lhs_4WbsQqXkiDwzQcI-40" value="description" style="shape=partialRectangle;connectable=0;fillColor=none;top=0;left=0;bottom=0;right=0;align=left;spacingLeft=6;overflow=hidden;" parent="3lhs_4WbsQqXkiDwzQcI-38" vertex="1">
                    <mxGeometry x="30" width="140" height="30" as="geometry"/>
                </mxCell>
                <mxCell id="3lhs_4WbsQqXkiDwzQcI-41" value="" style="shape=partialRectangle;collapsible=0;dropTarget=0;pointerEvents=0;fillColor=none;top=0;left=0;bottom=0;right=0;points=[[0,0.5],[1,0.5]];portConstraint=eastwest;" parent="3lhs_4WbsQqXkiDwzQcI-34" vertex="1">
                    <mxGeometry y="90" width="170" height="30" as="geometry"/>
                </mxCell>
                <mxCell id="3lhs_4WbsQqXkiDwzQcI-42" value="" style="shape=partialRectangle;connectable=0;fillColor=none;top=0;left=0;bottom=0;right=0;editable=1;overflow=hidden;" parent="3lhs_4WbsQqXkiDwzQcI-41" vertex="1">
                    <mxGeometry width="30" height="30" as="geometry"/>
                </mxCell>
                <mxCell id="3lhs_4WbsQqXkiDwzQcI-43" value="discount" style="shape=partialRectangle;connectable=0;fillColor=none;top=0;left=0;bottom=0;right=0;align=left;spacingLeft=6;overflow=hidden;" parent="3lhs_4WbsQqXkiDwzQcI-41" vertex="1">
                    <mxGeometry x="30" width="140" height="30" as="geometry"/>
                </mxCell>
                <mxCell id="3lhs_4WbsQqXkiDwzQcI-46" value="Grinds" style="shape=table;startSize=30;container=1;collapsible=1;childLayout=tableLayout;fixedRows=1;rowLines=0;fontStyle=1;align=center;resizeLast=1;" parent="1" vertex="1">
                    <mxGeometry x="359" y="-290" width="110" height="90" as="geometry"/>
                </mxCell>
                <mxCell id="3lhs_4WbsQqXkiDwzQcI-47" value="" style="shape=partialRectangle;collapsible=0;dropTarget=0;pointerEvents=0;fillColor=none;top=0;left=0;bottom=1;right=0;points=[[0,0.5],[1,0.5]];portConstraint=eastwest;" parent="3lhs_4WbsQqXkiDwzQcI-46" vertex="1">
                    <mxGeometry y="30" width="110" height="30" as="geometry"/>
                </mxCell>
                <mxCell id="3lhs_4WbsQqXkiDwzQcI-48" value="PK" style="shape=partialRectangle;connectable=0;fillColor=none;top=0;left=0;bottom=0;right=0;fontStyle=1;overflow=hidden;" parent="3lhs_4WbsQqXkiDwzQcI-47" vertex="1">
                    <mxGeometry width="30" height="30" as="geometry"/>
                </mxCell>
                <mxCell id="3lhs_4WbsQqXkiDwzQcI-49" value="UniqueID" style="shape=partialRectangle;connectable=0;fillColor=none;top=0;left=0;bottom=0;right=0;align=left;spacingLeft=6;fontStyle=5;overflow=hidden;" parent="3lhs_4WbsQqXkiDwzQcI-47" vertex="1">
                    <mxGeometry x="30" width="80" height="30" as="geometry"/>
                </mxCell>
                <mxCell id="3lhs_4WbsQqXkiDwzQcI-50" value="" style="shape=partialRectangle;collapsible=0;dropTarget=0;pointerEvents=0;fillColor=none;top=0;left=0;bottom=0;right=0;points=[[0,0.5],[1,0.5]];portConstraint=eastwest;" parent="3lhs_4WbsQqXkiDwzQcI-46" vertex="1">
                    <mxGeometry y="60" width="110" height="30" as="geometry"/>
                </mxCell>
                <mxCell id="3lhs_4WbsQqXkiDwzQcI-51" value="" style="shape=partialRectangle;connectable=0;fillColor=none;top=0;left=0;bottom=0;right=0;editable=1;overflow=hidden;" parent="3lhs_4WbsQqXkiDwzQcI-50" vertex="1">
                    <mxGeometry width="30" height="30" as="geometry"/>
                </mxCell>
                <mxCell id="3lhs_4WbsQqXkiDwzQcI-52" value="description" style="shape=partialRectangle;connectable=0;fillColor=none;top=0;left=0;bottom=0;right=0;align=left;spacingLeft=6;overflow=hidden;" parent="3lhs_4WbsQqXkiDwzQcI-50" vertex="1">
                    <mxGeometry x="30" width="80" height="30" as="geometry"/>
                </mxCell>
                <mxCell id="3lhs_4WbsQqXkiDwzQcI-67" value="Users" style="shape=table;startSize=30;container=1;collapsible=1;childLayout=tableLayout;fixedRows=1;rowLines=0;fontStyle=1;align=center;resizeLast=1;" parent="1" vertex="1">
                    <mxGeometry x="-170" y="-490" width="180" height="210" as="geometry"/>
                </mxCell>
                <mxCell id="3lhs_4WbsQqXkiDwzQcI-68" value="" style="shape=partialRectangle;collapsible=0;dropTarget=0;pointerEvents=0;fillColor=none;top=0;left=0;bottom=1;right=0;points=[[0,0.5],[1,0.5]];portConstraint=eastwest;" parent="3lhs_4WbsQqXkiDwzQcI-67" vertex="1">
                    <mxGeometry y="30" width="180" height="30" as="geometry"/>
                </mxCell>
                <mxCell id="3lhs_4WbsQqXkiDwzQcI-69" value="PK" style="shape=partialRectangle;connectable=0;fillColor=none;top=0;left=0;bottom=0;right=0;fontStyle=1;overflow=hidden;" parent="3lhs_4WbsQqXkiDwzQcI-68" vertex="1">
                    <mxGeometry width="30" height="30" as="geometry"/>
                </mxCell>
                <mxCell id="3lhs_4WbsQqXkiDwzQcI-70" value="UniqueID" style="shape=partialRectangle;connectable=0;fillColor=none;top=0;left=0;bottom=0;right=0;align=left;spacingLeft=6;fontStyle=5;overflow=hidden;" parent="3lhs_4WbsQqXkiDwzQcI-68" vertex="1">
                    <mxGeometry x="30" width="150" height="30" as="geometry"/>
                </mxCell>
                <mxCell id="3lhs_4WbsQqXkiDwzQcI-71" value="" style="shape=partialRectangle;collapsible=0;dropTarget=0;pointerEvents=0;fillColor=none;top=0;left=0;bottom=0;right=0;points=[[0,0.5],[1,0.5]];portConstraint=eastwest;" parent="3lhs_4WbsQqXkiDwzQcI-67" vertex="1">
                    <mxGeometry y="60" width="180" height="30" as="geometry"/>
                </mxCell>
                <mxCell id="3lhs_4WbsQqXkiDwzQcI-72" value="" style="shape=partialRectangle;connectable=0;fillColor=none;top=0;left=0;bottom=0;right=0;editable=1;overflow=hidden;" parent="3lhs_4WbsQqXkiDwzQcI-71" vertex="1">
                    <mxGeometry width="30" height="30" as="geometry"/>
                </mxCell>
                <mxCell id="3lhs_4WbsQqXkiDwzQcI-73" value="Row 1" style="shape=partialRectangle;connectable=0;fillColor=none;top=0;left=0;bottom=0;right=0;align=left;spacingLeft=6;overflow=hidden;" parent="3lhs_4WbsQqXkiDwzQcI-71" vertex="1">
                    <mxGeometry x="30" width="150" height="30" as="geometry"/>
                </mxCell>
                <mxCell id="3lhs_4WbsQqXkiDwzQcI-74" value="" style="shape=partialRectangle;collapsible=0;dropTarget=0;pointerEvents=0;fillColor=none;top=0;left=0;bottom=0;right=0;points=[[0,0.5],[1,0.5]];portConstraint=eastwest;" parent="3lhs_4WbsQqXkiDwzQcI-67" vertex="1">
                    <mxGeometry y="90" width="180" height="30" as="geometry"/>
                </mxCell>
                <mxCell id="3lhs_4WbsQqXkiDwzQcI-75" value="" style="shape=partialRectangle;connectable=0;fillColor=none;top=0;left=0;bottom=0;right=0;editable=1;overflow=hidden;" parent="3lhs_4WbsQqXkiDwzQcI-74" vertex="1">
                    <mxGeometry width="30" height="30" as="geometry"/>
                </mxCell>
                <mxCell id="3lhs_4WbsQqXkiDwzQcI-76" value="Row 2" style="shape=partialRectangle;connectable=0;fillColor=none;top=0;left=0;bottom=0;right=0;align=left;spacingLeft=6;overflow=hidden;" parent="3lhs_4WbsQqXkiDwzQcI-74" vertex="1">
                    <mxGeometry x="30" width="150" height="30" as="geometry"/>
                </mxCell>
                <mxCell id="3lhs_4WbsQqXkiDwzQcI-77" value="" style="shape=partialRectangle;collapsible=0;dropTarget=0;pointerEvents=0;fillColor=none;top=0;left=0;bottom=0;right=0;points=[[0,0.5],[1,0.5]];portConstraint=eastwest;" parent="3lhs_4WbsQqXkiDwzQcI-67" vertex="1">
                    <mxGeometry y="120" width="180" height="30" as="geometry"/>
                </mxCell>
                <mxCell id="3lhs_4WbsQqXkiDwzQcI-78" value="" style="shape=partialRectangle;connectable=0;fillColor=none;top=0;left=0;bottom=0;right=0;editable=1;overflow=hidden;" parent="3lhs_4WbsQqXkiDwzQcI-77" vertex="1">
                    <mxGeometry width="30" height="30" as="geometry"/>
                </mxCell>
                <mxCell id="3lhs_4WbsQqXkiDwzQcI-79" value="Row 3" style="shape=partialRectangle;connectable=0;fillColor=none;top=0;left=0;bottom=0;right=0;align=left;spacingLeft=6;overflow=hidden;" parent="3lhs_4WbsQqXkiDwzQcI-77" vertex="1">
                    <mxGeometry x="30" width="150" height="30" as="geometry"/>
                </mxCell>
                <mxCell id="3lhs_4WbsQqXkiDwzQcI-80" value="" style="shape=partialRectangle;collapsible=0;dropTarget=0;pointerEvents=0;fillColor=none;top=0;left=0;bottom=0;right=0;points=[[0,0.5],[1,0.5]];portConstraint=eastwest;" parent="3lhs_4WbsQqXkiDwzQcI-67" vertex="1">
                    <mxGeometry y="150" width="180" height="30" as="geometry"/>
                </mxCell>
                <mxCell id="3lhs_4WbsQqXkiDwzQcI-81" value="" style="shape=partialRectangle;connectable=0;fillColor=none;top=0;left=0;bottom=0;right=0;editable=1;overflow=hidden;" parent="3lhs_4WbsQqXkiDwzQcI-80" vertex="1">
                    <mxGeometry width="30" height="30" as="geometry"/>
                </mxCell>
                <mxCell id="3lhs_4WbsQqXkiDwzQcI-82" value="" style="shape=partialRectangle;connectable=0;fillColor=none;top=0;left=0;bottom=0;right=0;align=left;spacingLeft=6;overflow=hidden;" parent="3lhs_4WbsQqXkiDwzQcI-80" vertex="1">
                    <mxGeometry x="30" width="150" height="30" as="geometry"/>
                </mxCell>
                <mxCell id="3lhs_4WbsQqXkiDwzQcI-121" value="Orders" style="shape=table;startSize=30;container=1;collapsible=1;childLayout=tableLayout;fixedRows=1;rowLines=0;fontStyle=1;align=center;resizeLast=1;" parent="1" vertex="1">
                    <mxGeometry x="359" y="-490" width="150" height="180" as="geometry"/>
                </mxCell>
                <mxCell id="3lhs_4WbsQqXkiDwzQcI-122" value="" style="shape=partialRectangle;collapsible=0;dropTarget=0;pointerEvents=0;fillColor=none;top=0;left=0;bottom=1;right=0;points=[[0,0.5],[1,0.5]];portConstraint=eastwest;" parent="3lhs_4WbsQqXkiDwzQcI-121" vertex="1">
                    <mxGeometry y="30" width="150" height="30" as="geometry"/>
                </mxCell>
                <mxCell id="3lhs_4WbsQqXkiDwzQcI-123" value="PK" style="shape=partialRectangle;connectable=0;fillColor=none;top=0;left=0;bottom=0;right=0;fontStyle=1;overflow=hidden;" parent="3lhs_4WbsQqXkiDwzQcI-122" vertex="1">
                    <mxGeometry width="30" height="30" as="geometry"/>
                </mxCell>
                <mxCell id="3lhs_4WbsQqXkiDwzQcI-124" value="UniqueID" style="shape=partialRectangle;connectable=0;fillColor=none;top=0;left=0;bottom=0;right=0;align=left;spacingLeft=6;fontStyle=5;overflow=hidden;" parent="3lhs_4WbsQqXkiDwzQcI-122" vertex="1">
                    <mxGeometry x="30" width="120" height="30" as="geometry"/>
                </mxCell>
                <mxCell id="3lhs_4WbsQqXkiDwzQcI-146" value="" style="shape=partialRectangle;collapsible=0;dropTarget=0;pointerEvents=0;fillColor=none;top=0;left=0;bottom=0;right=0;points=[[0,0.5],[1,0.5]];portConstraint=eastwest;" parent="3lhs_4WbsQqXkiDwzQcI-121" vertex="1">
                    <mxGeometry y="60" width="150" height="30" as="geometry"/>
                </mxCell>
                <mxCell id="3lhs_4WbsQqXkiDwzQcI-147" value="" style="shape=partialRectangle;connectable=0;fillColor=none;top=0;left=0;bottom=0;right=0;editable=1;overflow=hidden;" parent="3lhs_4WbsQqXkiDwzQcI-146" vertex="1">
                    <mxGeometry width="30" height="30" as="geometry"/>
                </mxCell>
                <mxCell id="3lhs_4WbsQqXkiDwzQcI-148" value="shipping_address" style="shape=partialRectangle;connectable=0;fillColor=none;top=0;left=0;bottom=0;right=0;align=left;spacingLeft=6;overflow=hidden;" parent="3lhs_4WbsQqXkiDwzQcI-146" vertex="1">
                    <mxGeometry x="30" width="120" height="30" as="geometry"/>
                </mxCell>
                <mxCell id="3lhs_4WbsQqXkiDwzQcI-152" value="" style="shape=partialRectangle;collapsible=0;dropTarget=0;pointerEvents=0;fillColor=none;top=0;left=0;bottom=0;right=0;points=[[0,0.5],[1,0.5]];portConstraint=eastwest;" parent="3lhs_4WbsQqXkiDwzQcI-121" vertex="1">
                    <mxGeometry y="90" width="150" height="30" as="geometry"/>
                </mxCell>
                <mxCell id="3lhs_4WbsQqXkiDwzQcI-153" value="" style="shape=partialRectangle;connectable=0;fillColor=none;top=0;left=0;bottom=0;right=0;editable=1;overflow=hidden;" parent="3lhs_4WbsQqXkiDwzQcI-152" vertex="1">
                    <mxGeometry width="30" height="30" as="geometry"/>
                </mxCell>
                <mxCell id="3lhs_4WbsQqXkiDwzQcI-154" value="status" style="shape=partialRectangle;connectable=0;fillColor=none;top=0;left=0;bottom=0;right=0;align=left;spacingLeft=6;overflow=hidden;" parent="3lhs_4WbsQqXkiDwzQcI-152" vertex="1">
                    <mxGeometry x="30" width="120" height="30" as="geometry"/>
                </mxCell>
                <mxCell id="3lhs_4WbsQqXkiDwzQcI-155" value="" style="shape=partialRectangle;collapsible=0;dropTarget=0;pointerEvents=0;fillColor=none;top=0;left=0;bottom=0;right=0;points=[[0,0.5],[1,0.5]];portConstraint=eastwest;" parent="3lhs_4WbsQqXkiDwzQcI-121" vertex="1">
                    <mxGeometry y="120" width="150" height="30" as="geometry"/>
                </mxCell>
                <mxCell id="3lhs_4WbsQqXkiDwzQcI-156" value="" style="shape=partialRectangle;connectable=0;fillColor=none;top=0;left=0;bottom=0;right=0;editable=1;overflow=hidden;" parent="3lhs_4WbsQqXkiDwzQcI-155" vertex="1">
                    <mxGeometry width="30" height="30" as="geometry"/>
                </mxCell>
                <mxCell id="3lhs_4WbsQqXkiDwzQcI-157" value="date" style="shape=partialRectangle;connectable=0;fillColor=none;top=0;left=0;bottom=0;right=0;align=left;spacingLeft=6;overflow=hidden;" parent="3lhs_4WbsQqXkiDwzQcI-155" vertex="1">
                    <mxGeometry x="30" width="120" height="30" as="geometry"/>
                </mxCell>
                <mxCell id="3lhs_4WbsQqXkiDwzQcI-158" value="" style="shape=partialRectangle;collapsible=0;dropTarget=0;pointerEvents=0;fillColor=none;top=0;left=0;bottom=1;right=0;points=[[0,0.5],[1,0.5]];portConstraint=eastwest;" parent="3lhs_4WbsQqXkiDwzQcI-121" vertex="1">
                    <mxGeometry y="150" width="150" height="30" as="geometry"/>
                </mxCell>
                <mxCell id="3lhs_4WbsQqXkiDwzQcI-159" value="FK" style="shape=partialRectangle;connectable=0;fillColor=none;top=0;left=0;bottom=0;right=0;fontStyle=1;overflow=hidden;" parent="3lhs_4WbsQqXkiDwzQcI-158" vertex="1">
                    <mxGeometry width="30" height="30" as="geometry"/>
                </mxCell>
                <mxCell id="3lhs_4WbsQqXkiDwzQcI-160" value="user_id" style="shape=partialRectangle;connectable=0;fillColor=none;top=0;left=0;bottom=0;right=0;align=left;spacingLeft=6;fontStyle=5;overflow=hidden;" parent="3lhs_4WbsQqXkiDwzQcI-158" vertex="1">
                    <mxGeometry x="30" width="120" height="30" as="geometry"/>
                </mxCell>
                <mxCell id="3lhs_4WbsQqXkiDwzQcI-83" value="Orders_detail" style="shape=table;startSize=30;container=1;collapsible=1;childLayout=tableLayout;fixedRows=1;rowLines=0;fontStyle=1;align=center;resizeLast=1;" parent="1" vertex="1">
                    <mxGeometry x="90" y="-330" width="170" height="300" as="geometry"/>
                </mxCell>
                <mxCell id="3lhs_4WbsQqXkiDwzQcI-84" value="" style="shape=partialRectangle;collapsible=0;dropTarget=0;pointerEvents=0;fillColor=none;top=0;left=0;bottom=1;right=0;points=[[0,0.5],[1,0.5]];portConstraint=eastwest;" parent="3lhs_4WbsQqXkiDwzQcI-83" vertex="1">
                    <mxGeometry y="30" width="170" height="30" as="geometry"/>
                </mxCell>
                <mxCell id="3lhs_4WbsQqXkiDwzQcI-85" value="PK" style="shape=partialRectangle;connectable=0;fillColor=none;top=0;left=0;bottom=0;right=0;fontStyle=1;overflow=hidden;" parent="3lhs_4WbsQqXkiDwzQcI-84" vertex="1">
                    <mxGeometry width="30" height="30" as="geometry"/>
                </mxCell>
                <mxCell id="3lhs_4WbsQqXkiDwzQcI-86" value="UniqueID" style="shape=partialRectangle;connectable=0;fillColor=none;top=0;left=0;bottom=0;right=0;align=left;spacingLeft=6;fontStyle=5;overflow=hidden;" parent="3lhs_4WbsQqXkiDwzQcI-84" vertex="1">
                    <mxGeometry x="30" width="140" height="30" as="geometry"/>
                </mxCell>
                <mxCell id="3lhs_4WbsQqXkiDwzQcI-93" value="" style="shape=partialRectangle;collapsible=0;dropTarget=0;pointerEvents=0;fillColor=none;top=0;left=0;bottom=0;right=0;points=[[0,0.5],[1,0.5]];portConstraint=eastwest;" parent="3lhs_4WbsQqXkiDwzQcI-83" vertex="1">
                    <mxGeometry y="60" width="170" height="30" as="geometry"/>
                </mxCell>
                <mxCell id="3lhs_4WbsQqXkiDwzQcI-94" value="" style="shape=partialRectangle;connectable=0;fillColor=none;top=0;left=0;bottom=0;right=0;editable=1;overflow=hidden;" parent="3lhs_4WbsQqXkiDwzQcI-93" vertex="1">
                    <mxGeometry width="30" height="30" as="geometry"/>
                </mxCell>
                <mxCell id="3lhs_4WbsQqXkiDwzQcI-95" value="quantity" style="shape=partialRectangle;connectable=0;fillColor=none;top=0;left=0;bottom=0;right=0;align=left;spacingLeft=6;overflow=hidden;" parent="3lhs_4WbsQqXkiDwzQcI-93" vertex="1">
                    <mxGeometry x="30" width="140" height="30" as="geometry"/>
                </mxCell>
                <mxCell id="4POE1kAswEFOXkOAvwZu-15" value="" style="shape=partialRectangle;collapsible=0;dropTarget=0;pointerEvents=0;fillColor=none;top=0;left=0;bottom=0;right=0;points=[[0,0.5],[1,0.5]];portConstraint=eastwest;" parent="3lhs_4WbsQqXkiDwzQcI-83" vertex="1">
                    <mxGeometry y="90" width="170" height="30" as="geometry"/>
                </mxCell>
                <mxCell id="4POE1kAswEFOXkOAvwZu-16" value="" style="shape=partialRectangle;connectable=0;fillColor=none;top=0;left=0;bottom=0;right=0;editable=1;overflow=hidden;" parent="4POE1kAswEFOXkOAvwZu-15" vertex="1">
                    <mxGeometry width="30" height="30" as="geometry"/>
                </mxCell>
                <mxCell id="4POE1kAswEFOXkOAvwZu-17" value="price" style="shape=partialRectangle;connectable=0;fillColor=none;top=0;left=0;bottom=0;right=0;align=left;spacingLeft=6;overflow=hidden;" parent="4POE1kAswEFOXkOAvwZu-15" vertex="1">
                    <mxGeometry x="30" width="140" height="30" as="geometry"/>
                </mxCell>
                <mxCell id="4POE1kAswEFOXkOAvwZu-40" value="" style="shape=partialRectangle;collapsible=0;dropTarget=0;pointerEvents=0;fillColor=none;top=0;left=0;bottom=0;right=0;points=[[0,0.5],[1,0.5]];portConstraint=eastwest;" parent="3lhs_4WbsQqXkiDwzQcI-83" vertex="1">
                    <mxGeometry y="120" width="170" height="30" as="geometry"/>
                </mxCell>
                <mxCell id="4POE1kAswEFOXkOAvwZu-41" value="" style="shape=partialRectangle;connectable=0;fillColor=none;top=0;left=0;bottom=0;right=0;editable=1;overflow=hidden;" parent="4POE1kAswEFOXkOAvwZu-40" vertex="1">
                    <mxGeometry width="30" height="30" as="geometry"/>
                </mxCell>
                <mxCell id="4POE1kAswEFOXkOAvwZu-42" value="dicount" style="shape=partialRectangle;connectable=0;fillColor=none;top=0;left=0;bottom=0;right=0;align=left;spacingLeft=6;overflow=hidden;" parent="4POE1kAswEFOXkOAvwZu-40" vertex="1">
                    <mxGeometry x="30" width="140" height="30" as="geometry"/>
                </mxCell>
                <mxCell id="3lhs_4WbsQqXkiDwzQcI-143" value="" style="shape=partialRectangle;collapsible=0;dropTarget=0;pointerEvents=0;fillColor=none;top=0;left=0;bottom=1;right=0;points=[[0,0.5],[1,0.5]];portConstraint=eastwest;" parent="3lhs_4WbsQqXkiDwzQcI-83" vertex="1">
                    <mxGeometry y="150" width="170" height="30" as="geometry"/>
                </mxCell>
                <mxCell id="3lhs_4WbsQqXkiDwzQcI-144" value="FK" style="shape=partialRectangle;connectable=0;fillColor=none;top=0;left=0;bottom=0;right=0;fontStyle=1;overflow=hidden;" parent="3lhs_4WbsQqXkiDwzQcI-143" vertex="1">
                    <mxGeometry width="30" height="30" as="geometry"/>
                </mxCell>
                <mxCell id="3lhs_4WbsQqXkiDwzQcI-145" value="order_id" style="shape=partialRectangle;connectable=0;fillColor=none;top=0;left=0;bottom=0;right=0;align=left;spacingLeft=6;fontStyle=5;overflow=hidden;" parent="3lhs_4WbsQqXkiDwzQcI-143" vertex="1">
                    <mxGeometry x="30" width="140" height="30" as="geometry"/>
                </mxCell>
                <mxCell id="3lhs_4WbsQqXkiDwzQcI-188" value="" style="shape=partialRectangle;collapsible=0;dropTarget=0;pointerEvents=0;fillColor=none;top=0;left=0;bottom=1;right=0;points=[[0,0.5],[1,0.5]];portConstraint=eastwest;" parent="3lhs_4WbsQqXkiDwzQcI-83" vertex="1">
                    <mxGeometry y="180" width="170" height="30" as="geometry"/>
                </mxCell>
                <mxCell id="3lhs_4WbsQqXkiDwzQcI-189" value="FK" style="shape=partialRectangle;connectable=0;fillColor=none;top=0;left=0;bottom=0;right=0;fontStyle=1;overflow=hidden;" parent="3lhs_4WbsQqXkiDwzQcI-188" vertex="1">
                    <mxGeometry width="30" height="30" as="geometry"/>
                </mxCell>
                <mxCell id="3lhs_4WbsQqXkiDwzQcI-190" value="coffee_id" style="shape=partialRectangle;connectable=0;fillColor=none;top=0;left=0;bottom=0;right=0;align=left;spacingLeft=6;fontStyle=5;overflow=hidden;" parent="3lhs_4WbsQqXkiDwzQcI-188" vertex="1">
                    <mxGeometry x="30" width="140" height="30" as="geometry"/>
                </mxCell>
                <mxCell id="3lhs_4WbsQqXkiDwzQcI-226" value="" style="shape=partialRectangle;collapsible=0;dropTarget=0;pointerEvents=0;fillColor=none;top=0;left=0;bottom=1;right=0;points=[[0,0.5],[1,0.5]];portConstraint=eastwest;" parent="3lhs_4WbsQqXkiDwzQcI-83" vertex="1">
                    <mxGeometry y="210" width="170" height="30" as="geometry"/>
                </mxCell>
                <mxCell id="3lhs_4WbsQqXkiDwzQcI-227" value="FK" style="shape=partialRectangle;connectable=0;fillColor=none;top=0;left=0;bottom=0;right=0;fontStyle=1;overflow=hidden;" parent="3lhs_4WbsQqXkiDwzQcI-226" vertex="1">
                    <mxGeometry width="30" height="30" as="geometry"/>
                </mxCell>
                <mxCell id="3lhs_4WbsQqXkiDwzQcI-228" value="grind_id" style="shape=partialRectangle;connectable=0;fillColor=none;top=0;left=0;bottom=0;right=0;align=left;spacingLeft=6;fontStyle=5;overflow=hidden;" parent="3lhs_4WbsQqXkiDwzQcI-226" vertex="1">
                    <mxGeometry x="30" width="140" height="30" as="geometry"/>
                </mxCell>
                <mxCell id="3lhs_4WbsQqXkiDwzQcI-252" value="" style="shape=partialRectangle;collapsible=0;dropTarget=0;pointerEvents=0;fillColor=none;top=0;left=0;bottom=1;right=0;points=[[0,0.5],[1,0.5]];portConstraint=eastwest;" parent="3lhs_4WbsQqXkiDwzQcI-83" vertex="1">
                    <mxGeometry y="240" width="170" height="30" as="geometry"/>
                </mxCell>
                <mxCell id="3lhs_4WbsQqXkiDwzQcI-253" value="FK" style="shape=partialRectangle;connectable=0;fillColor=none;top=0;left=0;bottom=0;right=0;fontStyle=1;overflow=hidden;" parent="3lhs_4WbsQqXkiDwzQcI-252" vertex="1">
                    <mxGeometry width="30" height="30" as="geometry"/>
                </mxCell>
                <mxCell id="3lhs_4WbsQqXkiDwzQcI-254" value="weight_id" style="shape=partialRectangle;connectable=0;fillColor=none;top=0;left=0;bottom=0;right=0;align=left;spacingLeft=6;fontStyle=5;overflow=hidden;" parent="3lhs_4WbsQqXkiDwzQcI-252" vertex="1">
                    <mxGeometry x="30" width="140" height="30" as="geometry"/>
                </mxCell>
                <mxCell id="2" value="" style="shape=partialRectangle;collapsible=0;dropTarget=0;pointerEvents=0;fillColor=none;top=0;left=0;bottom=1;right=0;points=[[0,0.5],[1,0.5]];portConstraint=eastwest;" vertex="1" parent="3lhs_4WbsQqXkiDwzQcI-83">
                    <mxGeometry y="270" width="170" height="30" as="geometry"/>
                </mxCell>
                <mxCell id="3" value="FK" style="shape=partialRectangle;connectable=0;fillColor=none;top=0;left=0;bottom=0;right=0;fontStyle=1;overflow=hidden;" vertex="1" parent="2">
                    <mxGeometry width="30" height="30" as="geometry"/>
                </mxCell>
                <mxCell id="4" value="user_id" style="shape=partialRectangle;connectable=0;fillColor=none;top=0;left=0;bottom=0;right=0;align=left;spacingLeft=6;fontStyle=5;overflow=hidden;" vertex="1" parent="2">
                    <mxGeometry x="30" width="140" height="30" as="geometry"/>
                </mxCell>
                <mxCell id="3lhs_4WbsQqXkiDwzQcI-264" value="Arranca aca!" style="text;html=1;align=center;verticalAlign=middle;resizable=0;points=[];autosize=1;" parent="1" vertex="1">
                    <mxGeometry x="540" y="-480" width="80" height="20" as="geometry"/>
                </mxCell>
                <mxCell id="4POE1kAswEFOXkOAvwZu-1" value="" style="edgeStyle=entityRelationEdgeStyle;fontSize=12;html=1;endArrow=ERmany;entryX=0;entryY=0.5;entryDx=0;entryDy=0;exitX=1;exitY=0.5;exitDx=0;exitDy=0;" parent="1" source="3lhs_4WbsQqXkiDwzQcI-68" target="3lhs_4WbsQqXkiDwzQcI-158" edge="1">
                    <mxGeometry width="100" height="100" relative="1" as="geometry">
                        <mxPoint x="130" y="-220" as="sourcePoint"/>
                        <mxPoint x="230" y="-320" as="targetPoint"/>
                    </mxGeometry>
                </mxCell>
                <mxCell id="4POE1kAswEFOXkOAvwZu-2" value="" style="edgeStyle=entityRelationEdgeStyle;fontSize=12;html=1;endArrow=ERmany;entryX=1;entryY=0.5;entryDx=0;entryDy=0;exitX=0;exitY=0.5;exitDx=0;exitDy=0;" parent="1" source="3lhs_4WbsQqXkiDwzQcI-122" target="3lhs_4WbsQqXkiDwzQcI-143" edge="1">
                    <mxGeometry width="100" height="100" relative="1" as="geometry">
                        <mxPoint x="-10" y="-415" as="sourcePoint"/>
                        <mxPoint x="380" y="-305" as="targetPoint"/>
                    </mxGeometry>
                </mxCell>
                <mxCell id="4POE1kAswEFOXkOAvwZu-5" value="" style="edgeStyle=entityRelationEdgeStyle;fontSize=12;html=1;endArrow=ERmany;exitX=0;exitY=0.5;exitDx=0;exitDy=0;entryX=1;entryY=0.5;entryDx=0;entryDy=0;" parent="1" source="3lhs_4WbsQqXkiDwzQcI-47" target="3lhs_4WbsQqXkiDwzQcI-226" edge="1">
                    <mxGeometry width="100" height="100" relative="1" as="geometry">
                        <mxPoint x="410" y="-185" as="sourcePoint"/>
                        <mxPoint x="270" y="-105" as="targetPoint"/>
                    </mxGeometry>
                </mxCell>
                <mxCell id="4POE1kAswEFOXkOAvwZu-10" value="" style="edgeStyle=entityRelationEdgeStyle;fontSize=12;html=1;endArrow=ERmany;exitX=1;exitY=0.5;exitDx=0;exitDy=0;entryX=0;entryY=0.5;entryDx=0;entryDy=0;" parent="1" source="_opc5yqt9Sbzke906tnC-2" target="3lhs_4WbsQqXkiDwzQcI-188" edge="1">
                    <mxGeometry width="100" height="100" relative="1" as="geometry">
                        <mxPoint x="130" y="-100" as="sourcePoint"/>
                        <mxPoint x="80" y="-170" as="targetPoint"/>
                    </mxGeometry>
                </mxCell>
                <mxCell id="5" value="" style="edgeStyle=entityRelationEdgeStyle;fontSize=12;html=1;endArrow=ERmany;exitX=1;exitY=0.5;exitDx=0;exitDy=0;entryX=0;entryY=0.5;entryDx=0;entryDy=0;" edge="1" parent="1" source="3lhs_4WbsQqXkiDwzQcI-68" target="2">
                    <mxGeometry width="100" height="100" relative="1" as="geometry">
                        <mxPoint x="20" y="-185" as="sourcePoint"/>
                        <mxPoint x="100" y="-125" as="targetPoint"/>
                    </mxGeometry>
                </mxCell>
            </root>
        </mxGraphModel>
    </diagram>
</mxfile>